<svg width="36" height="34" xmlns="http://www.w3.org/2000/svg" xmlns:xlink="http://www.w3.org/1999/xlink" xml:space="preserve" overflow="hidden"><g transform="translate(-780 -520)"><g><g><g><g><path d="M16.4952 3.43578C9.28496 3.43578 3.43991 9.28084 3.43991 16.4911 3.43991 23.7013 9.28496 29.5463 16.4952 29.5463 23.7054 29.5463 29.5505 23.7013 29.5505 16.4911 29.5537 9.28407 23.7139 3.43901 16.5069 3.43578 16.503 3.43578 16.4991 3.43578 16.4952 3.43578ZM13.4585 22.0344 11.4727 22.0344 11.4727 12.5496C11.3049 12.6642 11.1279 12.7745 10.9416 12.8807 10.7554 12.9871 10.563 13.0824 10.3654 13.166 10.1521 13.2494 9.9276 13.3273 9.69203 13.3997 9.45646 13.4721 9.19772 13.5426 8.91584 13.6111L8.91584 12.0244C9.10583 11.9714 9.27884 11.9183 9.43491 11.8649 9.59097 11.8115 9.74521 11.7582 9.89759 11.705 10.0492 11.6442 10.2018 11.5813 10.3541 11.5167 10.5064 11.452 10.6583 11.3891 10.8106 11.3283 10.955 11.2524 11.1013 11.1763 11.2496 11.1 11.3978 11.0237 11.5445 10.9435 11.6896 10.8594 11.85 10.7758 12.0078 10.6841 12.1629 10.5844 12.318 10.4847 12.4761 10.393 12.6369 10.3094L13.4585 10.3094ZM23.7961 18.8155C23.6447 19.4929 23.3595 20.1332 22.9573 20.6989 22.2381 21.7022 21.0627 22.2768 19.8292 22.2283 19.2435 22.2413 18.663 22.1161 18.1349 21.8625 17.6312 21.6015 17.1956 21.2261 16.863 20.7666 16.1551 19.8014 15.8012 18.3864 15.8012 16.5217 15.7882 15.6206 15.8781 14.7211 16.0689 13.8404 16.2191 13.1449 16.5043 12.4856 16.9084 11.8999 17.632 10.8678 18.8334 10.2778 20.0925 10.3362 22.7403 10.3362 24.0643 12.307 24.0646 16.2487 24.0761 17.1119 23.986 17.9734 23.7961 18.8155Z" fill="#F48C06" fill-rule="nonzero" fill-opacity="1" transform="matrix(1.0303 0 0 1 781 521)"/><path d="M20.0014 11.8418C18.5322 11.8418 17.7979 13.3751 17.7983 16.4416 17.7983 17.8798 17.9791 18.9569 18.3404 19.6728 18.6088 20.3273 19.2488 20.7523 19.9561 20.7457 21.3634 20.7457 22.0671 19.2885 22.0674 16.3742 22.0674 14.8449 21.9 13.7074 21.5652 12.9614 21.2303 12.2155 20.7091 11.8423 20.0014 11.8418Z" fill="#F48C06" fill-rule="nonzero" fill-opacity="1" transform="matrix(1.0303 0 0 1 781 521)"/></g></g></g></g></g></svg>